<?xml version="1.0" encoding="UTF-8"?>
<svg width="64px" height="64px" version="1.1" viewBox="0 0 64 64" xmlns="http://www.w3.org/2000/svg">
	<g>
		<path d="m40 60-3.9-.5-4.7.81-4.6-.7-3.8.46-.83 1.4-2 1.6-2.6.002-2.5-1.5-3.2-1.2-3.2-.65-.67-.56-.77.52.48 1.2-.13 1.3-.95.6-2.4-.44-1.7-1.5-.97-3.2.57-3.2 2.3-3-1.9.082 1.4-2.2 2.6-5.4 2.7-3.3.93-2.2-1.2-.27 1.6-3.5 3.1-3.1h-1.9l3.9-3.9 5.2-2-1.6-4.1.47-3.6-1.2.86.8-4.1 2.1-4.1-1.2.095 1.7-2.1 2.5-3.3 2.3-3.1 3-1.8-.34 1.2 4.1-1.2 3.7.6-1.5.54 2.3 1.3 1.9 2.3-2.1-.43 5 6-1.3-.24 2.2 4.1.87 4.2-1.4-1 .54 2.6-.53 3.2-1.1 2 4.2 1.4 5.1 4.5-1.9-.011 3 3 1.7 3.6-1.3.23.61 1.8 1.7 1.8 2.7 4.4 2.7 5-1.9-.096 2.2 3.3.18 4.6-2 2.7-2.3.67-1.2-.27-.36-.99.54-1.9-.75-.51-.44.43-4.3 1-3.8 1.8-2.2.96-2.2-.73-1.6-2" fill="#9e512b"/>
		<path d="m55 59 .75.51-.54 1.9.36.99 1.2.27 2.3-.67 2-2.7-.18-4.6-2.2-3.3-.51 1.4.43 2.1-2.4-1.1-.53 2.4-.47-.23-1.1-1.4.31-.99.097-1.2-.59-.61-.83-.04-5.7 2.4-2.5.72.16-2.3-.46-1.1-.85-.21-.87.29-2.5 5.1-.54 1.9.37 2 1.6 2 2.2.73 6-2.8 4.3-1zm-47 .044-.77.52.48 1.2-.13 1.3-.95.6-2.4-.44-1.7-1.5-.97-3.2.57-3.2 2.3-3 .26 1.5-.34 2 2.3-1.1.6 2.4.5-.14 1.1-1.6-.38-1.6.68-1.1 1.5.18 6.5 2.9.91-.093.14-.84-.21-1.5.42-.92.89-.21.77.33 1.2 2.6 1 2.1.92 2.4-.93 2.8-2 1.6-2.6.002-2.5-1.5-3.2-1.2-3.2-.65zm19-25-2.4 2.2-2.1 4.1-.62 4.6.98 5 2.3 3.9 2.8 2 3.2.64 3.7-1.1 2.9-2.8 2-4.6.33-4-.73-4-1.7-3.3-2.6-2.5-.038-.0034-3.7 2.5-.71-.051-2.7-2zm4.1-2.2 4-1.3 2.3-2.9.6-3-.9-3.7-3-2.7 2.9.6 1-3.4-1.6-4.4-2.4-1.9-1.3-1.7-.63.41-.86-1.1-2.9 2.3-3.4 2.9-.97 3.5.99 3.5 3-.65-3.4 3.6-.57 3.1 1.1 3.7 2.5 2.3z" fill="#828487"/>
		<path d="m34-.021c-.83.054-1.9.38-2.7.68-.22.074-.2.076-.39.14l.0059-.018a.65.65 0 00-.9-.76s-.54.25-1.2.6c-.66.35-1.4.8-2 1.3-1 .96-1.6 2.2-2.3 3.2-.8 1.1-1.8 2.4-2.5 3.3-.7.87-1.7 2-1.7 2a.65.65 0 00.54 1.1l.076-.0059c-.48.82-1.2 2-1.6 3.1-.54 1.6-.83 4.3-.83 4.3a.65.65 0 00.87.62c-.12.78-.16 1.5-.098 2.2.11 1.2.57 2.5 1.1 3.5.041.076.13.16.18.24-.39.11-.59.15-1.3.39-1.1.38-2.5.87-3.3 1.5-1.5 1.1-3.3 2.5-4.1 4.1a.65.65 0 00.58.94h.11c-.68.65-1.3 1.3-1.8 2-.89 1.2-1.5 2.6-1.7 3.7a.65.65 0 00.5.75l.63.14c-.027.11-.046.36-.08.43-.079.15-.29.38-.64.91-.27.41-.56.63-1 1.1s-1 1.1-1.7 2.2c-1.4 2.3-2 4.3-2.6 5.4-.65 1.2-.59 1.2-1.4 2.1a.65.65 0 00.54 1.1l.33-.021c-.55.65-1 1.4-1.3 2.1-.47 1.1-.69 2.3-.62 3.5.075 1.2.48 2.5 1.1 3.5.56.86 1.2 1.3 2 1.7.86.41 2 .67 2.9.49.34-.066.61-.15.86-.32.24-.17.4-.39.52-.58.37-.6.29-1.2.22-1.7-.039-.28-.14-.5-.24-.71.095.071.13.16.24.22.52.29 1.1.35 1.7.43.6.079 1.2.15 1.7.28 1 .29 2.2.73 3.1 1.2.8.38 1.5 1.2 2.6 1.5v-.002c.97.28 2 .31 2.9-.0098.98-.33 1.7-1 2.3-1.8.25-.35.43-.78.61-1.2 1.3-.094 2.6-.44 3.5-.43.42.0057 1.2.17 2 .35.82.18 1.7.36 2.6.36 1.8-.017 3.5-.78 4.7-.81 1.1-.026 2.2.38 3.5.45.047.13.0095.25.07.38.38.82 1 1.7 1.9 2.2.76.51 1.7.88 2.6.84.52-.024.94-.2 1.3-.4.36-.2.69-.41 1.1-.62 1.1-.49 2.5-1.3 3.8-1.8.58-.2 1.5-.33 2.3-.47.8-.13 1.5-.23 2.1-.65-.037.11-.096.2-.13.31-.12.4-.21.73-.18 1.1.029.43.089 1 .6 1.4.44.37 1 .45 1.7.42.67-.021 1.7-.14 2.7-.77.91-.6 1.8-1.6 2.3-3 .46-1.5.36-3.5-.19-5-.34-.92-.89-1.7-1.4-2.4l.44.027a.65.65 0 00.44-1.2c-.35-.27-.86-1-1.3-1.9-.45-.89-.87-1.9-1.2-2.8-.76-1.8-1.9-3.6-2.8-4.6-.87-1.1-1.4-1.4-1.7-1.7-.2-.33-.25-.65-.33-.98l.61-.11a.65.65 0 00.53-.75c-.26-1.5-1.2-3.1-1.8-3.9-.36-.47-1-1.2-1.8-2h.15a.65.65 0 00.55-1c-1.1-1.7-3.7-3.8-5.3-4.7-1.3-.78-2.4-1.1-3.6-1.3.28-.42.63-.85.78-1.2.53-1.3.6-2.4.58-3.4-.008-.48-.12-.64-.22-1.1l.066.049a.65.65 0 001-.61s-.33-2.8-.9-4.4c-.41-1.1-1.1-2.2-1.6-3.1a.65.65 0 00.61-1.1s-1.7-2-2.5-2.9c-.44-.52-.78-.94-1.3-1.6l.24.051a.65.65 0 00.68-.99s-.29-.45-.68-.97c-.39-.52-.84-1.1-1.3-1.5-.33-.28-.74-.49-1.1-.71l.12-.043a.65.65 0 00-.037-1.2s-.62-.18-1.4-.34-1.7-.33-2.5-.28zm.084 1.3c.42-.027 1.1.09 1.7.2a.65.65 0 00.19.89s.39.17.86.41c.47.24 1 .57 1.3.8.17.15.46.52.73.86l-.38-.078a.65.65 0 00-.63 1.1s1.7 2 2.5 3c.51.6.95 1.1 1.5 1.8a.65.65 0 00-.37.86s1.7 2.8 2.1 4c.27.76.36 1.6.51 2.5l-.057-.041a.65.65 0 00-1 .72s.49 1.7.51 2.5c.016.95-.037 1.8-.48 2.9-.18.44-.82 1.4-1.4 2.1-.57.76-1.1 1.4-1.1 1.4a.65.65 0 00-.15.36s-.17 1.4-.45 2c-.33.71-.95 1.6-1.6 2.2-.67.61-1.5.94-2.7 1.6-.54.31-1.3.72-2.1 1.2-.63.38-1.1.8-1.6 1.3l-.064.016-.16-.059c-.66-.69-1.7-1.3-2.6-1.9-1.1-.67-2.4-1.1-3.1-1.7-.84-.68-1.5-1.5-2-2.3-.46-.8-.52-1.4-.63-2.3a.65.65 0 00-.22-.41c-.66-.57-1.5-1.7-1.9-2.5-.42-.78-.85-2-.94-3-.092-1-.0013-2.3.42-3.2a.65.65 0 00-.91-.8c.14-.92.22-1.7.48-2.5.42-1.2 2-4 2-4a.65.65 0 00-.38-.92c.33-.39.47-.55.81-.97.72-.89 1.8-2.2 2.6-3.3.86-1.1 1.4-2.4 2.2-3.1.34-.32 1-.73 1.6-1.1a.65.65 0 00.83.64s.68-.28 1.5-.57c.85-.29 1.9-.58 2.4-.62zm-1.9 4.6a.65.65 0 00-.51.33c-.33.58-1.4 1.6-2.5 2-1.6.5-3 1.9-3.8 3.2-.71 1.2-1.1 2.5-1.1 3.9.061 1.4.34 2.7 1.1 3.8a.65.65 0 00.67.26l.22-.047c-.63.64-1.1 1.3-1.4 2.1-.5 1.3-.59 2.1-.61 3.3-.027 1.4.54 3 1.2 4.1.68 1.1 1.6 1.9 2.7 2.5 1.1.62 2.4 1.1 3.9 1.1 1.5-.037 3.2-.59 4.4-1.4 1.2-.85 2-2.1 2.5-3.2.51-1.1.69-2.1.66-3.3-.026-1.2-.23-2.7-.99-4-.28-.47-.77-.85-1.2-1.3l.44.09a.65.65 0 00.68-.29c.5-.78 1.1-2.2 1.1-3.8-.013-1.6-.57-3.5-1.8-4.9-1.1-1.3-2-1.6-2.5-2-.49-.4-.87-1-1.2-1.5a.65.65 0 00-.91-.2l-.14.092-.49-.61a.65.65 0 00-.56-.24zm.031 1.7.38.47a.65.65 0 00.86.13l.14-.09c.27.43.51.9 1.1 1.3.74.6 1.4.76 2.4 1.9.91 1 1.4 2.8 1.4 4 .0084 1-.39 2-.75 2.7l-2.4-.5a.65.65 0 00-.5 1.2s.56.39 1.2.91c.64.52 1.4 1.2 1.6 1.6.58.97.78 2.3.8 3.4.0026.12-.057.19-.059.3a.65.65 0 00-.033-.15.65.65 0 00-.88-.29c-1.9.96-3.6 1.3-5.3 1.3-1.6-.014-4.2-.49-5.4-1.2a.65.65 0 00-.89.22.65.65 0 00.22.89c1.7 1 4.3 1.4 6.1 1.4 1.8.017 3.8-.37 5.9-1.4a.65.65 0 00.21-.19c-.057.63-.07 1.2-.38 1.9-.44.96-1.1 2-2.1 2.6-.95.67-2.5 1.2-3.7 1.2-1.2.029-2.3-.37-3.3-.91-.96-.54-1.7-1.2-2.2-2.1-.55-.89-1.1-2.4-1-3.4.022-1.2.07-1.7.53-2.9.39-1 1.6-2.3 3.2-3.2a.65.65 0 00-.49-1.2l-2.4.52c-.43-.75-.72-1.6-.76-2.7-.052-1.2.26-2.2.87-3.2.58-.94 2-2.3 3-2.6 1.2-.37 2.1-1.1 2.7-1.9zm2.7 5.7c-.68.0029-1.2.37-1.5.79-.28.42-.37.83-.35 1.2a.65.65 0 00.69.61.65.65 0 00.61-.69c-.002-.035.037-.27.13-.41.092-.13.17-.22.45-.22.28-.0012.38.092.48.23.1.14.13.39.13.32a.65.65 0 00.58.71.65.65 0 00.71-.58c.042-.43-.084-.82-.38-1.2-.3-.4-.85-.76-1.5-.76zm-5.9.064c-.65-.0025-1.2.3-1.5.7-.29.4-.37.83-.35 1.2a.65.65 0 00.69.61.65.65 0 00.61-.69c-.0052-.084.031-.26.1-.36.071-.097.14-.17.44-.17.29.0011.41.094.51.22.1.13.14.33.14.37a.65.65 0 00.62.68.65.65 0 00.68-.62c.021-.42-.11-.85-.42-1.2s-.86-.71-1.5-.71zm3.9 5.1a.65.65 0 00-.44.8l.32 1.1a.65.65 0 00.8.44.65.65 0 00.44-.81l-.32-1.1a.65.65 0 00-.81-.44zm-2 .035a.65.65 0 00-.79.48l-.24.97a.65.65 0 00.48.79.65.65 0 00.79-.48l.24-.96a.65.65 0 00-.48-.79zm12 8.1c1.3.15 2.3.39 3.7 1.2 1.1.68 2.8 2.1 3.9 3.3l-.39-.002a.65.65 0 00-.35 1.2c.98.61 2.3 2.2 2.8 2.9.39.51.95 1.7 1.3 2.7l-.51.088a.65.65 0 00-.54.65c.018.83.33 1.5.71 2.2.47.76 1 .93 1.8 1.9.78.97 1.9 2.6 2.6 4.3.36.87.79 1.9 1.3 2.9.23.45.54.73.79 1.1l-.59-.037a.65.65 0 00-.57.37.65.65 0 00-.018.012c-.0073.013-.017.062-.025.076a.65.65 0 00-.074.15.65.65 0 00.012.035c-.21.34-.56.79-.5 1.5.025.32.11.61.19.92-.37-.17-.79-.3-1.1-.52a.65.65 0 00-.98.41l-.29 1.3c-.098-.089-.17-.27-.25-.34-.26-.21-.35-.4-.32-.24-.012-.062-.025.003.025-.09.051-.093.22-.3.28-.65.061-.31.31-.84.07-1.5-.13-.37-.43-.55-.7-.73.075-.38.31-1.4.24-2.4-.072-1.1-.28-2.3-.75-3.2-.39-.74-.78-1.3-1.4-1.7-.62-.38-1.3-.5-2.1-.5-.81-.0016-1.6.24-2.4.54-.37.15-.67.39-1 .59.16-1.1.34-2.2.34-3.4a.65.65 0 00-.65-.65.65.65 0 00-.65.65c.0027 1.5-.16 3.1-.42 4.2-.78.6-1.9 1.6-1.9 1.6a.65.65 0 00-.029.92.65.65 0 00.92.029s1.4-1.3 1.9-1.7c.67-.48 1.3-.88 1.9-1.1.66-.26 1.4-.45 1.9-.45.59.0012 1.1.1 1.4.32.37.22.56.48.92 1.2.29.54.54 1.7.6 2.6.044.65-.13 1.6-.21 2-.068.0098-.13-.028-.2-.012-.76.15-1.8.61-2.9 1.1-1.1.52-2.3 1.1-2.9 1.3-.88.38-1.1.38-1.5.45.01-.076.0027-.1.016-.18.067-.41.17-.83.076-1.3-.11-.58-.23-1.1-.68-1.5-.45-.39-1-.38-1.3-.37-.23.0082-.82.022-1.3.46-.57.53-.62 1.1-.99 1.9-.43.91-.93 2.3-1.6 3.3-.52.75-.62 1.5-.65 2.2-.0093.2.1.42.12.63-1-.11-1.9-.45-3.3-.42-1.6.037-3.3.8-4.7.81-.68.0065-1.5-.15-2.3-.33-.8-.17-1.6-.37-2.3-.38-1.1-.014-2.1.26-3.2.38.029-.22.12-.45.11-.67-.039-1.1-.64-2-1-2.6-.36-.68-.57-1.2-.99-2.1-.19-.38-.39-.91-.6-1.4-.21-.49-.39-.93-.73-1.3-.35-.41-.78-.53-1.2-.56-.37-.029-.91-.061-1.4.39-.34.33-.54.79-.62 1.3-.054.37.0091.68.066.99.057.3.13.59.14.7.013.085.0079.19-.0039.27.056-.05.061.0011-.26-.07a.65.65 0 00-.035-.0078c-.19-.032-.68-.2-1.2-.45s-1.2-.56-1.8-.89c-1.3-.65-2.5-1.3-3.3-1.6-.46-.16-.69-.068-1-.09-.059-.36-.24-1.4-.2-2 .05-.86.29-2 .57-2.6.33-.66.57-.94.99-1.2.4-.25.79-.32 1.4-.32.51-.0015 1.2.19 1.9.46.63.25 1.3.63 1.9 1.1.005.0035.012.01.018.014a.65.65 0 00.014.012c.61.43 2 1.7 2 1.7a.65.65 0 00.92-.045.65.65 0 00-.043-.92s-1.1-.99-1.9-1.6c-.31-1.3-.51-2.9-.49-4.2a.65.65 0 00-.64-.66.65.65 0 00-.66.64c-.016 1.1.2 2.3.4 3.4-.34-.19-.66-.44-1-.58-.74-.29-1.6-.55-2.4-.55-.72.0021-1.4.12-2.1.52-.62.39-1.1.94-1.5 1.7-.43.88-.65 2.1-.7 3.1-.055.97.16 2 .22 2.3-.34.29-.64.7-.71 1.4-.06.54.16.96.27 1.2.12.23.14.25.11.42-.019.1-.1.19-.36.41-.067.059-.11.24-.19.33-.095-.45-.14-.81-.37-1.5a.65.65 0 00-1.1-.28c-.27.24-.68.52-1.1.71-.0069.0035-.0068.00054-.014.0039.057-.37.19-.78.19-1.1.0071-.65-.036-1.2-.33-1.8a.65.65 0 00-.19-.15.65.65 0 00-.23-.18.65.65 0 00-.018-.0059.65.65 0 00-.28-.096l-.55.037c.2-.31.44-.57.76-1.2.71-1.3 1.3-3.2 2.6-5.3.64-1.1 1.1-1.6 1.5-2 .41-.4.83-.72 1.2-1.3.3-.46.5-.64.7-1 .2-.36.28-.78.34-1.5a.65.65 0 00-.51-.69l-.47-.1c.25-.81.6-1.8 1.2-2.6.8-1.1 1.9-2.3 2.9-2.9a.65.65 0 00-.33-1.2h-.58c.77-.93 1.8-1.9 2.9-2.7.6-.42 1.9-.94 3-1.3.93-.31 1.5-.46 1.7-.52.34.47.61.94 1 1.3.1.8.19 1.6.74 2.6.56.98 1.3 1.9 2.3 2.7.49.4 1 .58 1.5.85-.6.44-1.3 1-1.8 1.8-.69 1.1-1.7 2.6-2.2 4.2-.48 1.5-.71 3.1-.65 4.8.055 1.7.41 3.6 1 5.2.6 1.6 1.4 3 2.4 4.1.98 1 1.9 1.7 3 2.2 1.1.45 2.2.76 3.5.69 1.3-.075 2.8-.49 4-1.2 1.2-.73 2.2-1.8 3.1-3 .93-1.3 1.7-3.3 2.1-4.8.38-1.5.42-2.8.35-4.2-.07-1.4-.33-2.9-.77-4.2-.44-1.3-1.1-2.5-1.8-3.5-.58-.84-1.4-1.5-2.1-2 .75-.39 1.5-.71 2.2-1.3.85-.78 1.5-1.8 2-2.7.42-.91.49-2 .51-2.2.078-.093.49-.58 1-1.3.009-.012.014-.025.023-.037zm-22 3.6a.65.65 0 00-.42.26l-3.1 4.3a.65.65 0 00.29.98l.77.3-.81 1.5a.65.65 0 00.27.88.65.65 0 00.88-.27l1.1-2.2a.65.65 0 00-.34-.91l-.66-.26 2.6-3.6a.65.65 0 00-.15-.91.65.65 0 00-.48-.11zm22 .11a.65.65 0 00-.15.91l2.6 3.6-.58.19a.65.65 0 00-.38.92l1.2 2.2a.65.65 0 00.88.28.65.65 0 00.28-.88l-.82-1.6.69-.22a.65.65 0 00.33-.99l-3.1-4.4a.65.65 0 00-.91-.15zm-6.7 4.5c.56.41 1.7 1.3 2.2 2.1.64.93 1.2 2 1.6 3.2.39 1.2.64 2.6.7 3.8.065 1.3.031 2.5-.31 3.8-.34 1.4-1.1 3.3-1.8 4.3-.8 1.1-1.7 2.1-2.7 2.7-.99.59-2.4.98-3.4 1-1 .061-1.9-.18-2.9-.59-.95-.4-1.7-.93-2.6-1.9-.86-.92-1.6-2.2-2.2-3.6-.54-1.4-.89-3.2-.94-4.8-.05-1.6.15-2.9.59-4.4.42-1.4 1.3-2.8 2-3.9.52-.83 1.5-1.5 2-1.8.14.071.31.17.44.24 1 .61 2.2 1.4 2.5 1.8a.65.65 0 00.28.2l.36.13a.65.65 0 00.37.021l.35-.08a.65.65 0 00.38-.25c.18-.24.79-.72 1.5-1.1.56-.34 1.1-.65 1.6-.94zm-16 17c.13.01.35.14.32.1a.65.65 0 00.029.033c.062.064.29.47.49.93s.4 1 .63 1.5c.4.82.62 1.4 1 2.1.4.76.83 1.5.85 2.1.022.62-.36 1.8-.81 2.4-.49.69-1 1.1-1.7 1.4-.69.23-1.4.21-2.2-.0078-.62-.18-1.3-.91-2.4-1.4-.99-.48-2.2-.93-3.3-1.2-.62-.18-1.3-.24-1.9-.32-.58-.076-1.1-.19-1.2-.28-.54-.3-.48-.4-.48-.51a.65.65 0 000-.012c-.0024-.093-.047.038.057-.1.1-.14.32-.51.33-.95.0044-.51-.27-.88-.39-1.1s-.15-.2-.14-.38c.0056-.092.042-.13.28-.34.24-.21.66-.55.78-1.2.098-.54-.1-.99-.23-1.2-.12-.25-.16-.29-.14-.45.057-.51.3-.61.28-.61.013-.0051.29-.069 1 .19a.65.65 0 00.023.0078c.46.15 1.8.83 3.1 1.5.65.33 1.3.66 1.9.92.58.26 1.1.46 1.5.53.59.13 1.1.12 1.5-.27.25-.25.27-.45.31-.67.041-.22.05-.47.0098-.72-.037-.24-.1-.49-.15-.75-.048-.25-.063-.51-.057-.56.046-.32.13-.45.22-.54-.038.036.2-.052.39-.037zm25 .084c.29-.011.32-.018.4.055.08.069.15.22.25.76.013.068-.016.45-.084.87s-.17.87-.076 1.4a.65.65 0 00.66.54c.8-.02 1.4-.2 2.7-.78.69-.3 1.8-.85 2.9-1.4s2.2-.97 2.6-1a.65.65 0 00.031-.0078c.28-.067.27-.061.4 0 .16.071.19.094.24.23-.015-.043-.043.42-.12.84-.003.016-.038.075-.15.27-.11.2-.24.58-.16.97.12.6.53.8.77 1 .24.2.34.35.34.33.0022.011-.023.17-.15.43-.13.26-.36.56-.35 1.1.011.35.13.63.2.79.074.16.083.19.084.23.0044.12-.051.25-.25.4-.13.098-.84.3-1.6.43-.8.13-1.7.25-2.5.52-1.5.51-2.9 1.4-3.9 1.8-.55.25-.93.5-1.2.66-.29.16-.47.23-.75.24-.61.029-1.2-.21-1.8-.62-.54-.37-1.1-1.1-1.4-1.7-.28-.59-.34-1.1-.31-1.7.03-.64.093-1.1.42-1.6a.65.65 0 00.002-.0039c.8-1.2 1.3-2.6 1.7-3.4.43-.91.58-1.4.7-1.5.22-.2.085-.1.46-.11zm15 .83c.55.68 1.2 1.4 1.5 2.2.43 1.2.51 3.1.17 4.2-.35 1.1-1 1.8-1.8 2.3-.67.44-1.4.54-2 .56-.55.018-.7-.041-.8-.12-.034-.028-.11-.2-.13-.53.0011.016.041-.35.13-.68.094-.32.24-.67.31-.79a.65.65 0 00-.19-.88l-.49-.33c.008-.073.099-.11.096-.18-.012-.33-.14-.58-.2-.72-.063-.14-.082-.18-.086-.3.002.062.065-.17.21-.47.02-.042.013-.13.035-.18a.65.65 0 00.72-.47l.36-1.6c.55.28 1.1.58 1.7.79a.65.65 0 00.85-.68c-.092-.93-.4-1.7-.43-2.1-6.8e-5-.00089.002-.003.002-.0039zm-55 .17c-.009.56-.066 1.1-.3 1.7a.65.65 0 00.53.87c.56.069.99-.14 1.5-.38.18-.091.33-.23.5-.34.13.5.28 1 .37 1.5a.65.65 0 00.76.51.65.65 0 00.002 0c.048.09.056.26.098.32.15.22.17.24.17.32-.0013.15.022.061-.068.18-.089.12-.32.49-.31.91.00074.061.055.14.066.21l-.41.28a.65.65 0 00-.21.85s.094.17.2.39c.1.22.2.51.21.57.052.37.0075.77-.041.84-.092.15-.12.17-.15.19-.029.02-.12.065-.38.12-.28.056-1.5-.12-2-.39-.66-.31-.99-.55-1.4-1.2-.41-.63-.81-1.9-.87-2.8-.061-.99.11-1.9.52-2.9.24-.58.81-1.1 1.3-1.7z" fill="#000000"/>
	</g>
</svg>
